<svg width="229" height="215" viewBox="0 0 229 215" fill="none" xmlns="http://www.w3.org/2000/svg">
<rect width="229" height="215" rx="24" fill="#213D67"/>
<path fill-rule="evenodd" clip-rule="evenodd" d="M187.148 91.5882C187.159 91.1686 187.165 90.7476 187.165 90.3252C187.165 65.6252 167.142 45.6019 142.442 45.6019C121.205 45.6019 103.426 60.4033 98.8574 80.2524H69.8738C48.9567 80.2524 32 97.2091 32 118.126C32 139.043 48.9567 156 69.8738 156H160.126C181.043 156 198 139.043 198 118.126C198 107.791 193.86 98.4219 187.148 91.5882Z" fill="white"/>
<path d="M74.518 171.444C75.598 171.444 76.48 171.726 77.164 172.29C77.86 172.842 78.208 173.676 78.208 174.792V174.99H76.048V174.846C76.048 174.366 75.91 173.982 75.634 173.694C75.358 173.406 74.98 173.262 74.5 173.262C73.996 173.262 73.606 173.376 73.33 173.604C73.054 173.832 72.916 174.126 72.916 174.486C72.916 174.798 73.006 175.056 73.186 175.26C73.378 175.452 73.612 175.608 73.888 175.728C74.164 175.848 74.554 175.986 75.058 176.142C75.766 176.358 76.342 176.58 76.786 176.808C77.242 177.024 77.626 177.36 77.938 177.816C78.262 178.26 78.424 178.854 78.424 179.598C78.424 180.834 78.064 181.746 77.344 182.334C76.636 182.91 75.658 183.198 74.41 183.198C73.702 183.198 73.048 183.066 72.448 182.802C71.86 182.526 71.386 182.124 71.026 181.596C70.678 181.068 70.504 180.426 70.504 179.67V179.31H72.718L72.7 179.58C72.7 180.12 72.856 180.558 73.168 180.894C73.492 181.218 73.942 181.38 74.518 181.38C75.106 181.38 75.538 181.254 75.814 181.002C76.09 180.738 76.228 180.42 76.228 180.048C76.228 179.676 76.126 179.37 75.922 179.13C75.73 178.89 75.484 178.704 75.184 178.572C74.884 178.428 74.476 178.272 73.96 178.104C73.276 177.876 72.718 177.654 72.286 177.438C71.866 177.21 71.5 176.874 71.188 176.43C70.888 175.974 70.738 175.374 70.738 174.63C70.738 173.946 70.906 173.364 71.242 172.884C71.59 172.404 72.046 172.044 72.61 171.804C73.186 171.564 73.822 171.444 74.518 171.444ZM84.5787 181.938H84.4887C84.2367 182.31 83.9247 182.616 83.5527 182.856C83.1807 183.084 82.7547 183.198 82.2747 183.198C81.5547 183.198 80.9907 182.976 80.5827 182.532C80.1747 182.088 79.9707 181.374 79.9707 180.39V174.288H81.9507V179.85C81.9507 180.402 82.0467 180.798 82.2387 181.038C82.4307 181.278 82.7187 181.398 83.1027 181.398C83.4867 181.398 83.8047 181.236 84.0567 180.912C84.3207 180.576 84.4527 180.168 84.4527 179.688V174.288H86.4327V183H84.7767L84.5787 181.938ZM92.8756 181.938H92.8036C92.5876 182.358 92.3056 182.676 91.9576 182.892C91.6216 183.096 91.2436 183.198 90.8236 183.198C89.9356 183.198 89.2456 182.82 88.7536 182.064C88.2616 181.308 88.0156 180.168 88.0156 178.644C88.0156 177.132 88.2616 175.998 88.7536 175.242C89.2576 174.474 89.9116 174.09 90.7156 174.09C91.1596 174.09 91.5556 174.192 91.9036 174.396C92.2516 174.588 92.5036 174.852 92.6596 175.188H92.7496V171.03H94.7296V183H93.0736L92.8756 181.938ZM91.4176 175.908C90.9496 175.908 90.6136 176.112 90.4096 176.52C90.2056 176.928 90.1036 177.534 90.1036 178.338V178.95C90.1036 179.766 90.2056 180.378 90.4096 180.786C90.6136 181.194 90.9496 181.398 91.4176 181.398C91.8856 181.398 92.2216 181.194 92.4256 180.786C92.6416 180.378 92.7496 179.766 92.7496 178.95V178.356C92.7496 177.552 92.6416 176.946 92.4256 176.538C92.2216 176.118 91.8856 175.908 91.4176 175.908ZM99.8045 174.09C100.98 174.09 101.85 174.462 102.414 175.206C102.99 175.95 103.278 177.102 103.278 178.662C103.278 180.21 102.99 181.356 102.414 182.1C101.838 182.832 100.968 183.198 99.8045 183.198C98.6285 183.198 97.7525 182.832 97.1765 182.1C96.6005 181.356 96.3125 180.21 96.3125 178.662C96.3125 177.102 96.6005 175.95 97.1765 175.206C97.7525 174.462 98.6285 174.09 99.8045 174.09ZM99.8045 175.782C99.3005 175.782 98.9405 175.992 98.7245 176.412C98.5085 176.832 98.4005 177.474 98.4005 178.338V178.95C98.4005 179.826 98.5085 180.474 98.7245 180.894C98.9405 181.314 99.3005 181.524 99.8045 181.524C100.308 181.524 100.668 181.314 100.884 180.894C101.1 180.474 101.208 179.826 101.208 178.95V178.338C101.208 177.474 101.1 176.832 100.884 176.412C100.668 175.992 100.308 175.782 99.8045 175.782ZM114.365 175.782C114.317 175.53 114.269 175.224 114.221 174.864C114.185 174.504 114.161 174.27 114.149 174.162H114.077C114.065 174.282 114.035 174.51 113.987 174.846C113.939 175.17 113.891 175.482 113.843 175.782L112.331 183H110.189L107.723 171.66H109.811L111.179 178.644C111.227 178.848 111.269 179.13 111.305 179.49C111.353 179.85 111.383 180.09 111.395 180.21H111.467C111.479 180.09 111.503 179.85 111.539 179.49C111.587 179.118 111.629 178.836 111.665 178.644L113.051 171.66H115.463L116.795 178.644C116.843 178.824 116.891 179.1 116.939 179.472C116.987 179.844 117.017 180.09 117.029 180.21H117.083C117.095 180.102 117.119 179.874 117.155 179.526C117.203 179.166 117.251 178.872 117.299 178.644L118.685 171.66H120.503L118.055 183H115.931L114.365 175.782ZM124.161 174.09C125.217 174.09 126.003 174.462 126.519 175.206C127.047 175.95 127.311 177.102 127.311 178.662V179.148H122.901C122.913 179.964 123.015 180.576 123.207 180.984C123.411 181.38 123.753 181.578 124.233 181.578C124.581 181.578 124.851 181.434 125.043 181.146C125.247 180.846 125.349 180.438 125.349 179.922H127.311C127.311 181.002 127.029 181.818 126.465 182.37C125.901 182.922 125.157 183.198 124.233 183.198C121.953 183.198 120.813 181.686 120.813 178.662C120.813 175.614 121.929 174.09 124.161 174.09ZM124.161 175.71C123.753 175.71 123.447 175.878 123.243 176.214C123.051 176.55 122.943 177.048 122.919 177.708H125.241C125.241 177.06 125.151 176.568 124.971 176.232C124.791 175.884 124.521 175.71 124.161 175.71ZM131.45 174.09C132.434 174.09 133.172 174.312 133.664 174.756C134.156 175.2 134.402 175.83 134.402 176.646V180.948C134.402 181.14 134.444 181.284 134.528 181.38C134.624 181.476 134.738 181.524 134.87 181.524H135.266V182.928C134.954 183.108 134.558 183.198 134.078 183.198C133.694 183.198 133.364 183.096 133.088 182.892C132.824 182.676 132.644 182.4 132.548 182.064H132.476C132.2 182.448 131.894 182.736 131.558 182.928C131.234 183.108 130.802 183.198 130.262 183.198C129.71 183.198 129.206 183.018 128.75 182.658C128.294 182.286 128.066 181.65 128.066 180.75C128.066 179.634 128.444 178.848 129.2 178.392C129.956 177.936 131.024 177.708 132.404 177.708V176.808C132.404 176.46 132.338 176.19 132.206 175.998C132.074 175.806 131.834 175.71 131.486 175.71C131.126 175.71 130.862 175.806 130.694 175.998C130.538 176.178 130.46 176.388 130.46 176.628V176.88H128.498C128.486 176.82 128.48 176.694 128.48 176.502C128.48 175.782 128.75 175.2 129.29 174.756C129.83 174.312 130.55 174.09 131.45 174.09ZM132.404 179.148C130.88 179.148 130.118 179.622 130.118 180.57C130.118 181.218 130.442 181.542 131.09 181.542C131.534 181.542 131.864 181.368 132.08 181.02C132.296 180.66 132.404 180.204 132.404 179.652V179.148ZM139.657 175.962H138.397V180.804C138.397 181.032 138.457 181.212 138.577 181.344C138.697 181.464 138.871 181.524 139.099 181.524H139.657V183C139.513 183.048 139.321 183.09 139.081 183.126C138.853 183.174 138.649 183.198 138.469 183.198C137.737 183.198 137.209 182.976 136.885 182.532C136.573 182.088 136.417 181.53 136.417 180.858V175.962H135.535V174.288H136.417L136.723 171.84H138.397V174.288H139.657V175.962ZM142.86 175.224C143.088 174.9 143.382 174.63 143.742 174.414C144.102 174.198 144.516 174.09 144.984 174.09C145.692 174.09 146.25 174.318 146.658 174.774C147.078 175.218 147.288 175.926 147.288 176.898V183H145.308V177.438C145.308 176.898 145.206 176.508 145.002 176.268C144.81 176.028 144.528 175.908 144.156 175.908C143.772 175.908 143.448 176.076 143.184 176.412C142.932 176.736 142.806 177.15 142.806 177.654V183H140.826V171.03H142.806V175.224H142.86ZM152.057 174.09C153.113 174.09 153.899 174.462 154.415 175.206C154.943 175.95 155.207 177.102 155.207 178.662V179.148H150.797C150.809 179.964 150.911 180.576 151.103 180.984C151.307 181.38 151.649 181.578 152.129 181.578C152.477 181.578 152.747 181.434 152.939 181.146C153.143 180.846 153.245 180.438 153.245 179.922H155.207C155.207 181.002 154.925 181.818 154.361 182.37C153.797 182.922 153.053 183.198 152.129 183.198C149.849 183.198 148.709 181.686 148.709 178.662C148.709 175.614 149.825 174.09 152.057 174.09ZM152.057 175.71C151.649 175.71 151.343 175.878 151.139 176.214C150.947 176.55 150.839 177.048 150.815 177.708H153.137C153.137 177.06 153.047 176.568 152.867 176.232C152.687 175.884 152.417 175.71 152.057 175.71ZM160.138 174.09C160.366 174.09 160.552 174.108 160.696 174.144C160.84 174.18 160.93 174.204 160.966 174.216V176.142H160.264C159.784 176.142 159.394 176.298 159.094 176.61C158.794 176.922 158.644 177.438 158.644 178.158V183H156.664V174.288H158.302L158.536 175.566H158.644C158.788 175.134 158.974 174.78 159.202 174.504C159.43 174.228 159.742 174.09 160.138 174.09Z" fill="white"/>
</svg>
